# xmcd
#
# Track frame offsets: 
#        150
#        14983
#        36498
#        58628
#        71953
#        83818
#        97400
#        113020
#        128550
#        144345
#        160353
#        191130
#        205210
#        227708
#        241333
#        259805
#        278545
#        290998
#        312825
#
# Disc length: 4328 seconds
#
# Revision: 1
# Processed by: cddbd v1.5.2PL0 Copyright (c) Steve Scherf et al.
# Submitted via: ExactAudioCopy v1.0b1
#
DISCID=2910e613
DTITLE=Johnny Otis - The Johnny Otis Show Live at Monterey!
DYEAR=1970
DGENRE=R&B
TTITLE0=Willie and the Hand Jive
TTITLE1=Cry Me A River Blues
TTITLE2=Cleanhead's Blues
TTITLE3=I Got a Gal
TTITLE4=Since I Met You Baby
TTITLE5=Baby You Don't Know
TTITLE6=Preacher's Blues
TTITLE7=Good Rockin' Tonight
TTITLE8=The Time Machine
TTITLE9=Margie's Boogie
TTITLE10=Little Esther's Blues: Blowtop Blues - T Bone Blues - Jelly J
TTITLE10=elly
TTITLE11=Kidney Stew
TTITLE12=The Things I Used To Do
TTITLE13=R.M. Blues
TTITLE14=Shuggie's Boogie
TTITLE15=You Look Better Out
TTITLE16=Goin' Back to L. A.
TTITLE17=Plastic Man
TTITLE18=Boogie Woogie Bye Bye
EXTD=
EXTT0=
EXTT1=
EXTT2=
EXTT3=
EXTT4=
EXTT5=
EXTT6=
EXTT7=
EXTT8=
EXTT9=
EXTT10=
EXTT11=
EXTT12=
EXTT13=
EXTT14=
EXTT15=
EXTT16=
EXTT17=
EXTT18=
PLAYORDER=
